# xmcd CD database file
#
# Track frame offsets:
#	150
#	18730
#	42439
#	63796
#	86972
#	110229
#	134327
#	149595
#	165603
#	187398
#	209412
#
# Disc length: 3052 seconds
#
# Revision: 3
# Processed by: cddbd v1.5.1PL2 Copyright (c) Steve Scherf et al.
# Submitted via: CDex 1.51
#
DISCID=b20bea0b
DTITLE=PRINCESS PRINCESS - PRINCESS PRINCESS
DYEAR=1990
DGENRE=Rock
TTITLE0=ROCK ME
TTITLE1=ティンカーベル
TTITLE2=台風の歌
TTITLE3=逃げろ
TTITLE4=ジュリアン
TTITLE5=ROLLIN' ON THE CORNER
TTITLE6=錆びつきブルース
TTITLE7=月夜の出来事
TTITLE8=THE LAST MOMENT
TTITLE9=HIGHWAY STAR
TTITLE10=One
EXTD=YEAR: 1990
EXTT0=
EXTT1=
EXTT2=
EXTT3=
EXTT4=
EXTT5=
EXTT6=
EXTT7=
EXTT8=
EXTT9=
EXTT10=
PLAYORDER=
